<svg class="logo" xmlns="http://www.w3.org/2000/svg" xmlns:xlink="http://www.w3.org/1999/xlink" version="1.1" id="Layer_1" x="0px" y="0px" width="100%" viewBox="0 0 368 368" enable-background="new 0 0 368 368" xml:space="preserve">
<path fill="#000000" opacity="1.000000" stroke="none" d=" M173.945847,42.743702   C213.248764,37.142429 249.222229,45.366253 282.495026,65.758522   C293.744415,72.653069 303.878815,81.040833 313.488434,91.385704   C296.861725,92.809021 288.016663,99.955322 286.466095,112.228271   C285.188599,122.339844 291.925293,132.516830 302.004242,135.701385   C314.276642,139.578979 323.322510,134.734146 332.429718,118.478554   C351.673981,155.599014 359.238647,193.522751 348.989105,233.665848   C333.144501,295.722473 285.658173,343.971680 219.555222,354.975677   C172.407272,362.824249 130.295319,349.646515 92.367653,321.888397   C92.409416,321.361603 92.451172,320.834808 92.492935,320.308014   C97.999557,319.792969 103.505875,319.274750 109.012848,318.763519   C127.634842,317.034637 145.247513,311.835999 161.960770,303.474365   C164.843887,302.031952 166.409866,299.683807 167.728333,296.884094   C173.476334,284.678345 179.322021,272.518463 185.174988,260.362549   C185.874176,258.910431 186.228973,257.156525 188.048019,256.316437   C190.172806,256.758636 190.470337,258.817352 191.235687,260.334351   C198.738129,275.204895 206.151276,290.120483 213.634003,305.001007   C215.274170,308.262756 216.720490,311.768250 221.281738,311.950684   C226.128403,312.144531 227.766113,308.510010 229.595123,305.159210   C252.660690,262.902191 275.701447,220.631607 298.741882,178.360855   C301.132843,173.974304 303.623688,169.633728 305.804596,165.143784   C307.622894,161.400314 306.255981,158.914642 302.104584,158.534073   C298.469421,158.200821 294.781311,158.431641 291.116638,158.438263   C288.444244,158.443085 287.531982,160.581482 286.470337,162.436981   C272.076874,187.593353 257.673676,212.744247 243.341965,237.935806   C237.329544,248.504120 231.496521,259.174408 225.537079,269.773102   C224.671722,271.312103 224.146408,273.462189 221.932159,273.529175   C219.447815,273.604309 218.797516,271.348846 217.913681,269.617828   C209.885696,253.894821 201.901169,238.149643 193.886398,222.419861   C192.608337,219.911530 191.565567,217.118698 187.995972,217.084351   C184.528275,217.050980 183.724823,219.941147 182.544739,222.198563   C174.365219,237.845139 166.297729,253.550232 158.144196,269.210480   C157.262726,270.903503 156.768585,273.336273 154.264771,273.259308   C151.846878,273.184998 151.307877,270.829254 150.421570,269.107697   C142.492828,253.706726 134.466141,238.353439 126.785866,222.829010   C124.531906,218.272995 121.043983,216.491760 116.487419,216.272934   C103.831230,215.665115 101.243660,219.479370 106.835999,230.502533   C118.065598,252.637451 129.394760,274.721832 140.650925,296.843323   C141.538239,298.587158 142.868805,300.212982 142.618622,302.810211   C136.577118,305.814178 129.750366,306.472107 123.115219,307.780182   C111.478920,310.074158 99.887367,309.690857 88.507568,306.401001   C68.524223,300.623871 58.525970,284.268524 62.129971,263.829498   C65.779823,243.130447 76.569832,226.007034 89.394661,210.039703   C119.727928,172.273804 158.442734,145.853317 202.729050,127.075462   C221.533630,119.102135 241.068451,113.781807 261.203918,110.545853   C262.145142,110.394585 263.053955,110.041824 263.918304,109.484764   C256.622467,108.610321 249.463028,109.340767 242.361786,110.834991   C188.214111,122.228645 141.340485,147.706879 100.299500,184.390625   C78.665802,203.727463 61.080429,226.079987 49.869827,253.094925   C49.512489,253.956009 49.322929,255.075562 47.590046,255.432755   C45.478020,253.300064 44.770195,250.195358 43.790276,247.315247   C32.774319,214.938232 32.937950,182.508636 44.170883,150.290146   C59.900780,105.173370 90.141357,73.386871 133.769501,54.176617   C146.497345,48.572315 159.787704,44.935543 173.945847,42.743702  z"/>
</svg>
